<svg version="1.1" xmlns="http://www.w3.org/2000/svg" xmlns:xlink="http://www.w3.org/1999/xlink" x="0px" y="0px" viewBox="0 0 1000 1000" enable-background="new 0 0 1000 1000" xml:space="preserve" fill="#FFF">
<g transform="translate(0.000000,387.000000) scale(0.100000,-0.100000)">
  <path d="M6708,2562.9c-513.3-65.1-932.8-216.4-1327.3-478.8c-205-137.9-513.3-419.5-666.6-614.8l-97.7-120.7l86.2-168.5c260.5-505.7,291.1-1074.5,86.2-1591.7c-101.5-260.5-220.3-438.6-440.5-664.6l-132.2-136l40.2-103.4c23-57.5,67-160.9,99.6-231.8l59.4-130.2h151.3c84.3,0,149.4,5.7,145.6,15.3c-3.8,7.7-38.3,76.6-78.5,151.3l-70.9,139.8l61.3,26.8c34.5,13.4,329.4,143.7,657,289.2c325.6,145.6,595.7,254.7,597.6,245.2c15.3-46,145.6-249,189.6-295c24.9-26.8,46-57.5,46-70.8c0-11.5-141.7-180-316-375.4c-174.3-193.4-316-356.3-316-360.1c0-5.7,47.9-42.1,107.2-82.4c329.5-227.9,561.2-639.7,563.1-997.9v-116.8l72.8-21.1c243.3-70.9,402.2-90,770-88.1c314.1,0,406.1,5.7,572.7,42.1c386.9,84.3,722.1,226,1045.8,438.6c254.7,168.5,626.3,540.1,793,791c666.5,1007.5,657,2269.7-24.9,3265.7C8954.7,1944.3,8280.5,2379,7512.4,2526.5C7355.4,2557.2,6844,2580.2,6708,2562.9z M8973.8,1408c130.2-145.6,289.2-381.2,373.5-549.7l59.4-116.8l-635.9-283.5c-350.5-155.1-645.5-285.4-657-291.1c-11.5-3.8-49.8,40.2-84.3,101.5c-32.6,59.4-99.6,149.4-147.5,201.1l-86.2,91.9l53.6,65.1c30.7,36.4,245.2,277.7,475,536.3l421.4,469.3l57.5-47.9C8835.9,1557.4,8912.5,1476.9,8973.8,1408z M7215.5,572.9c362-95.8,641.6-400.3,699.1-766.1c101.5-632.1-480.7-1189.4-1103.2-1057.3c-628.2,134.1-936.6,787.2-645.5,1363.7c61.3,118.8,252.8,310.3,381.1,377.3C6748.2,597.8,6997.2,628.4,7215.5,572.9z"/><path d="M6886.1,122.8c-295-69-450.1-400.3-314.1-666.5c47.9-95.8,168.5-203,260.5-233.7c118.8-38.3,296.9-17.2,404.1,49.8c337.1,206.9,266.2,727.8-114.9,840.8C7018.3,143.8,6980,145.7,6886.1,122.8z"/><path d="M2720.2,1923.2c-657-118.8-1168.4-589.9-1329.3-1223.9c-57.5-224.1-65.1-553.5-17.2-758.5c176.2-764.2,831.3-1292.9,1603.2-1292.9c356.3,0,637.8,82.4,925.1,270.1C4543.6-664.5,4806,155.3,4534,881.2C4354,1362,3917.3,1752.7,3404,1894.5C3271.8,1930.8,2854.3,1948.1,2720.2,1923.2z"/><path d="M1115.1-1974.6c-283.5-57.5-521-182-710.6-373.5c-143.7-145.6-254.7-344.8-285.4-515.2c-11.5-55.5-19.2-306.5-19.2-553.5v-452l51.7-46c538.2-453.9,1212.4-743.2,2026.4-869.6c360.1-55.6,1103.2-59.4,1465.2-9.6c607.2,86.2,1229.7,287.3,1674,544c193.4,111.1,411.8,256.7,499.9,333.3l67,59.4v415.6c0,227.9-9.6,473.1-19.2,545.9c-65.1,442.5-478.8,821.7-1007.5,923.2C4654.7-1934.3,1306.7-1936.2,1115.1-1974.6z" fill="#FFF"/>
</g>
</svg>